/* XPM */
static char * close_prelight_xpm[] = {
"25 25 4 1",
" 	c None",
".	c #000000",
"+	c #191919",
"@	c #00A2FF",
".........................",
"+++++++++++++++++++++++++",
"+++++++++++++++++++++++++",
"+++++++++++++++++++++++++",
"+++++++++++++++++++++++++",
"+++++++++++++++++++++++++",
"+++++++++++++++++++++++++",
"+++++++++++++++++++++++++",
"++++++++@@++++@@+++++++++",
"++++++++@@@++@@@+++++++++",
"+++++++++@@@@@@++++++++++",
"++++++++++@@@@+++++++++++",
"++++++++++@@@@+++++++++++",
"+++++++++@@@@@@++++++++++",
"++++++++@@@++@@@+++++++++",
"++++++++@@++++@@+++++++++",
"+++++++++++++++++++++++++",
"+++++++++++++++++++++++++",
"+++++++++++++++++++++++++",
"+++++++++++++++++++++++++",
"+++++++++++++++++++++++++",
"+++++++++++++++++++++++++",
"+++++++++++++++++++++++++",
"+++++++++++++++++++++++++",
"+++++++++++++++++++++++++"};
