/* XPM */
static char * close_inactive_xpm[] = {
"25 25 3 1",
" 	c None",
".	c #2D2D2D",
"+	c #AAAAAA",
".........................",
".........................",
".........................",
".........................",
".........................",
".........................",
".........................",
".........................",
"........++....++.........",
"........+++..+++.........",
".........++++++..........",
"..........++++...........",
"..........++++...........",
".........++++++..........",
"........+++..+++.........",
"........++....++.........",
".........................",
".........................",
".........................",
".........................",
".........................",
".........................",
".........................",
".........................",
"........................."};
