/* XPM */
static char * maximize_active_xpm[] = {
"25 25 9 1",
" 	c None",
".	c #000000",
"+	c #191919",
"@	c #8B8B8B",
"#	c #D2D2D2",
"$	c #D5D5D5",
"%	c #DBDBDB",
"&	c #DADADA",
"*	c #2D2D2D",
".........................",
"+++++++++++++++++++++++++",
"+++++++++++++++++++++++++",
"+++++++++++++++++++++++++",
"+++++++++++++++++++++++++",
"+++++++++++++++++++++++++",
"+++++++++++++++++++++++++",
"+++++++++++++++++++++++++",
"++++++++@#$$$$#@+++++++++",
"++++++++#%&&&&%#+++++++++",
"++++++++$&****&$+++++++++",
"++++++++$&****&$+++++++++",
"++++++++$&****&$+++++++++",
"++++++++$&****&$+++++++++",
"++++++++#%&&&&%#+++++++++",
"++++++++@#$$$$#@+++++++++",
"+++++++++++++++++++++++++",
"+++++++++++++++++++++++++",
"+++++++++++++++++++++++++",
"+++++++++++++++++++++++++",
"+++++++++++++++++++++++++",
"+++++++++++++++++++++++++",
"+++++++++++++++++++++++++",
"+++++++++++++++++++++++++",
"+++++++++++++++++++++++++"};
