/* XPM */
static char * maximize_prelight_xpm[] = {
"25 25 5 1",
" 	c None",
".	c #000000",
"+	c #191919",
"@	c #00A2FF",
"#	c #2D2D2D",
".........................",
"+++++++++++++++++++++++++",
"+++++++++++++++++++++++++",
"+++++++++++++++++++++++++",
"+++++++++++++++++++++++++",
"+++++++++++++++++++++++++",
"+++++++++++++++++++++++++",
"+++++++++++++++++++++++++",
"++++++++@@@@@@@@+++++++++",
"++++++++@@@@@@@@+++++++++",
"++++++++@@####@@+++++++++",
"++++++++@@####@@+++++++++",
"++++++++@@####@@+++++++++",
"++++++++@@####@@+++++++++",
"++++++++@@@@@@@@+++++++++",
"++++++++@@@@@@@@+++++++++",
"+++++++++++++++++++++++++",
"+++++++++++++++++++++++++",
"+++++++++++++++++++++++++",
"+++++++++++++++++++++++++",
"+++++++++++++++++++++++++",
"+++++++++++++++++++++++++",
"+++++++++++++++++++++++++",
"+++++++++++++++++++++++++",
"+++++++++++++++++++++++++"};
