/* XPM */
static char *menu_xpm[] = {
"16 16 3 1",
" 	c None",
"1	c #2D2D2D",
"2	c #00A2FF",
"1111111111111111",
"1111111111111111",
"1111111111111111",
"1111111111111111",
"1111111111111111",
"1111111111111111",
"1111112222111111",
"1111112222111111",
"1111112222111111",
"1111112222111111",
"1111111111111111",
"1111111111111111",
"1111111111111111",
"1111111111111111",
"1111111111111111",
"1111111111111111"
};
