/* XPM */
static char * menu_pressed_xpm[] = {
"25 25 3 1",
" 	c None",
".	c #2D2D2D",
"+	c #008EE0",
".........................",
".........................",
".........................",
".........................",
".........................",
".........................",
".........................",
".........................",
"........++++++++.........",
"........++++++++.........",
"........++....++.........",
"........++....++.........",
"........++....++.........",
"........++....++.........",
"........++++++++.........",
"........++++++++.........",
".........................",
".........................",
".........................",
".........................",
".........................",
".........................",
".........................",
".........................",
"........................."};
